<?xml version="1.0" standalone="no"?>
<!DOCTYPE svg PUBLIC "-//W3C//DTD SVG 20010904//EN"
 "http://www.w3.org/TR/2001/REC-SVG-20010904/DTD/svg10.dtd">
<svg version="1.0" xmlns="http://www.w3.org/2000/svg"
 width="700.000000pt" height="700.000000pt" viewBox="0 0 700.000000 700.000000"
 preserveAspectRatio="xMidYMid meet">
<metadata>
Created by potrace 1.11, written by Peter Selinger 2001-2013
</metadata>
<g transform="translate(0.000000,700.000000) scale(0.100000,-0.100000)"
fill="#000000" stroke="none">
<path d="M5199 5256 c-2 -2 -38 -6 -79 -10 -41 -3 -84 -8 -95 -10 -11 -2 -42
-7 -70 -10 -84 -12 -275 -63 -371 -99 -533 -204 -873 -611 -977 -1172 -40
-211 -43 -577 -7 -751 5 -27 12 -60 14 -74 16 -95 52 -208 104 -330 157 -371
471 -664 872 -813 108 -40 276 -83 365 -93 33 -3 63 -8 67 -10 12 -8 201 -18
328 -18 354 0 663 49 999 160 120 40 338 132 348 147 8 14 7 1556 -1 1565 -4
4 -300 7 -657 7 l-649 0 -1 -42 c0 -24 -1 -151 -2 -283 l-2 -240 258 0 c141 0
257 -3 258 -7 1 -11 1 -605 0 -620 -1 -13 -75 -39 -136 -49 -22 -3 -43 -8 -46
-9 -11 -7 -176 -18 -269 -18 -107 0 -185 7 -256 24 -27 6 -58 13 -69 15 -37 7
-138 44 -151 55 -8 6 -14 8 -14 5 0 -4 -13 2 -29 13 -16 12 -32 21 -36 21 -16
0 -105 69 -161 125 -129 127 -217 297 -259 500 -22 107 -28 178 -28 320 0 148
6 212 32 341 86 422 393 693 841 743 85 9 325 7 410 -4 236 -31 519 -122 748
-240 l102 -53 1 31 c0 18 0 169 1 336 0 246 -2 305 -13 312 -27 17 -215 88
-304 114 -159 48 -339 85 -480 101 -33 3 -69 8 -80 11 -24 5 -500 14 -506 9z"/>
<path d="M470 3565 l0 -1635 33 -1 c37 0 749 0 787 1 l26 0 -1 556 c0 306 3
560 6 566 4 7 143 11 385 13 209 2 395 6 414 9 19 3 58 8 85 12 255 32 502
139 662 288 168 156 264 355 290 606 12 116 4 374 -12 401 -2 3 -7 21 -10 40
-9 53 -55 178 -89 239 -54 101 -130 190 -239 283 -100 84 -328 184 -497 217
-183 35 -260 38 -1062 39 l-778 1 0 -1635z m1437 1015 c21 -5 51 -11 66 -14
43 -7 147 -60 186 -92 78 -66 130 -185 135 -306 10 -264 -111 -426 -359 -478
-60 -13 -614 -22 -616 -11 -3 18 -4 897 -1 904 5 10 540 8 589 -3z"/>
</g>
</svg>
