<?xml version="1.0" encoding="UTF-8"?>
<!-- Created with Inkscape (http://www.inkscape.org/) -->
<svg width="1050" height="150" version="1.1" viewBox="0 0 1050 150" xmlns="http://www.w3.org/2000/svg" xmlns:cc="http://creativecommons.org/ns#" xmlns:dc="http://purl.org/dc/elements/1.1/" xmlns:rdf="http://www.w3.org/1999/02/22-rdf-syntax-ns#">
 <metadata>
  <rdf:RDF>
   <cc:Work rdf:about="">
    <dc:format>image/svg+xml</dc:format>
    <dc:type rdf:resource="http://purl.org/dc/dcmitype/StillImage"/>
    <dc:title/>
   </cc:Work>
  </rdf:RDF>
 </metadata>
 <path d="m323.45 10.133c-3.0222 0-5.5552 0.97804-7.5996 2.9336-2.0444 1.8667-3.0664 4.222-3.0664 7.0664 0 2.8444 1.022 5.2456 3.0664 7.2012 2.0444 1.8667 4.5774 2.7988 7.5996 2.7988 3.1111 0 5.646-0.97804 7.6016-2.9336 2.0444-2.0444 3.0664-4.5335 3.0664-7.4668 0-2.7556-1.022-5.0211-3.0664-6.7988-2.0444-1.8667-4.5793-2.8008-7.6016-2.8008zm221.88 0c-3.0222 0-5.5552 0.97804-7.5996 2.9336-2.0444 1.8667-3.0664 4.222-3.0664 7.0664 0 2.8444 1.022 5.2456 3.0664 7.2012 2.0444 1.8667 4.5774 2.7988 7.5996 2.7988 3.1111 0 5.646-0.97804 7.6016-2.9336 2.0444-2.0444 3.0664-4.5335 3.0664-7.4668 0-2.7556-1.022-5.0211-3.0664-6.7988-2.0444-1.8667-4.5793-2.8008-7.6016-2.8008zm83.209 4v36.533c-2.7556-3.2-6.0889-5.5992-10-7.1992s-8.2225-2.4004-12.934-2.4004c-6.8444 0-13.022 1.511-18.533 4.5332-5.4222 3.0222-9.6877 7.2897-12.799 12.801s-4.668 11.866-4.668 19.066 1.5569 13.599 4.668 19.199c3.1111 5.5111 7.3766 9.7786 12.799 12.801 5.5111 3.0222 11.689 4.5332 18.533 4.5332 4.8889 0 9.334-0.84431 13.334-2.5332 4.0889-1.6889 7.5101-4.2218 10.266-7.5996v9.1992h16v-98.934zm-602.25 5.5996v93.334h17.334v-26.934h21.066c8.0889 0 15.111-1.3333 21.066-4 6.0444-2.6667 10.667-6.489 13.867-11.467 3.2-5.0667 4.7988-10.977 4.7988-17.732 0-6.8444-1.5988-12.757-4.7988-17.734-3.2-4.9778-7.8227-8.8001-13.867-11.467-5.9556-2.6667-12.978-4-21.066-4zm234.52 6.4004v16.268h-11.734v13.332h11.734v34.268c0 7.8222 2.1337 13.778 6.4004 17.867s10.311 6.1328 18.133 6.1328c3.1111 0 6.0433-0.39922 8.7988-1.1992 2.8444-0.8 5.2456-2.0016 7.2012-3.6016l-4.666-11.865c-2.4889 1.9556-5.6006 2.9336-9.334 2.9336-3.2 0-5.6451-0.89019-7.334-2.668-1.6889-1.8667-2.5332-4.5333-2.5332-8v-33.867h19.066v-13.332h-19.066v-16.268zm-217.19 8.2676h20.266c7.5556 0 13.29 1.5988 17.201 4.7988 3.9111 3.2 5.8652 7.7788 5.8652 13.734 0 5.9556-1.9541 10.532-5.8652 13.732-3.9111 3.2-9.6456 4.8008-17.201 4.8008h-20.266zm103.06 6.666c-5.8667 0-11.424 0.75647-16.668 2.2676-5.2444 1.5111-9.7335 3.6888-13.467 6.5332l6.5332 12.133c2.6667-2.2222 5.9122-3.9548 9.7344-5.1992 3.9111-1.2444 7.8672-1.8672 11.867-1.8672 5.8667 0 10.266 1.3333 13.199 4 3.0222 2.6667 4.5332 6.489 4.5332 11.467v1.0664h-18.4c-10.222 0-17.733 1.9561-22.533 5.8672-4.7111 3.8222-7.0664 8.932-7.0664 15.332 0 4.0889 1.0678 7.7775 3.2012 11.066 2.2222 3.2 5.332 5.7349 9.332 7.6016 4 1.7778 8.6667 2.666 14 2.666s9.8663-0.80039 13.6-2.4004c3.8222-1.6889 6.7563-4.0881 8.8008-7.1992v8.666h15.732v-41.732c0-10.133-2.7984-17.69-8.3984-22.668-5.5111-5.0667-13.511-7.5996-24-7.5996zm94.988 0c-12.089 0-20.532 3.7345-25.332 11.201v-10.4h-15.867v71.199h16.666v-34.533c0-7.1111 1.8224-12.532 5.4668-16.266 3.6444-3.8222 8.7123-5.7344 15.201-5.7344 1.1556 0 2.443 0.13372 3.8652 0.40039zm142.06 0c-6.7556 0-12.889 1.4231-18.4 4.2676-5.4222 2.8444-9.7316 6.8884-12.932 12.133-3.1111 5.1556-4.668 11.112-4.668 17.867 0 6.7556 1.5569 12.756 4.668 18 3.2 5.2444 7.5094 9.3323 12.932 12.266 5.5111 2.8444 11.645 4.2676 18.4 4.2676 4.8889 0 9.3779-0.80039 13.467-2.4004 4.0889-1.6 7.5559-3.9553 10.4-7.0664v3.7324c0 7.2889-1.8224 12.712-5.4668 16.268-3.6444 3.5556-9.377 5.332-17.199 5.332-4.8889 0-9.7332-0.79844-14.533-2.3984-4.7111-1.5111-8.6233-3.557-11.734-6.1348l-7.4668 12.533c4 3.2889 9.0678 5.7779 15.201 7.4668 6.1333 1.7778 12.62 2.668 19.465 2.668 25.6 0 38.4-12.533 38.4-37.6v-60.4h-15.865v9.4668c-2.8444-3.4667-6.4013-6.0455-10.668-7.7344-4.1778-1.6889-8.8444-2.5332-14-2.5332zm314.34 0c-7.0222 0-13.334 1.5549-18.934 4.666s-9.9992 7.4684-13.199 13.068c-3.1111 5.5111-4.666 11.733-4.666 18.666 0 7.0222 1.5988 13.334 4.7988 18.934 3.2889 5.5111 7.9116 9.8225 13.867 12.934 5.9556 3.1111 12.844 4.666 20.666 4.666 6.1333 0 11.644-0.97804 16.533-2.9336 4.8889-1.9556 8.9348-4.8438 12.135-8.666l-8.9336-10.268c-5.0667 5.1556-11.512 7.7344-19.334 7.7344-6.1333 0-11.289-1.511-15.467-4.5332-4.0889-3.1111-6.6218-7.2888-7.5996-12.533h55.867c0.17778-2.1333 0.26563-3.778 0.26563-4.9336 0-7.2889-1.5549-13.69-4.666-19.201-3.0222-5.6-7.2897-9.9114-12.801-12.934-5.4222-3.1111-11.6-4.666-18.533-4.666zm92.279 0c-5.2444 0-9.955 0.84432-14.133 2.5332-4.1778 1.6889-7.6448 4.1779-10.4 7.4668v-9.1992h-15.867v71.199h16.668v-36c0-6.9333 1.7765-12.223 5.332-15.867 3.5556-3.7333 8.3999-5.5996 14.533-5.5996 5.4222 0 9.5999 1.6008 12.533 4.8008 2.9333 3.1111 4.4004 7.7778 4.4004 14v38.666h16.668v-40.799c0-10.311-2.7126-18.09-8.1348-23.334s-12.622-7.8672-21.6-7.8672zm-475.29 0.80078v71.199h16.666v-71.199zm130.46 0v40.666c0 10.4 2.7106 18.266 8.1328 23.6 5.5111 5.2444 13.024 7.8672 22.535 7.8672 4.6222 0 8.9316-0.84431 12.932-2.5332 4-1.7778 7.3333-4.2668 10-7.4668v9.0664h15.867v-71.199h-16.666v36c0 6.9333-1.7784 12.267-5.334 16-3.4667 3.6444-8.1773 5.4668-14.133 5.4668-5.3333 0-9.467-1.5569-12.4-4.668-2.8444-3.2-4.2656-7.9984-4.2656-14.398v-38.4zm91.42 0v71.199h16.666v-71.199zm370.01 1.0664c-6.4889 0-12.134 1.3773-16.934 4.1328-4.7111 2.7556-8.266 6.5779-10.666 11.467v-15.066h-6.4004v69.6h6.666v-37.066c0-8.2667 2.3553-14.844 7.0664-19.732s11.156-7.334 19.334-7.334c7.1111 0 12.622 2.0439 16.533 6.1328 4 4.0889 6 10.045 6 17.867v40.133h6.668v-40.666c0-9.5111-2.5349-16.801-7.6016-21.867-5.0667-5.0667-11.955-7.5996-20.666-7.5996zm55.043 0.5332v40.666c0 9.5111 2.5788 16.801 7.7344 21.867 5.1556 5.0667 12.267 7.5996 21.334 7.5996 6.1333 0 11.467-1.3333 16-4 4.5334-2.7556 7.9545-6.5779 10.266-11.467v14.934h6.4003v-69.6h-6.666v37.066c0 8.2667-2.3113 14.845-6.9336 19.734-4.5333 4.8889-10.711 7.332-18.533 7.332-7.2889 0-12.934-2.0439-16.934-6.1328-4-4.0889-6-10.045-6-17.867v-40.133zm-263.91 10.934c5.4222 0 9.9552 1.5988 13.6 4.7988 3.6444 3.2 5.8221 7.3776 6.5332 12.533h-40.398c0.8-5.2444 3.0216-9.4221 6.666-12.533 3.7333-3.2 8.2663-4.7988 13.6-4.7988zm-311.81 0.79883c6.3111 0 11.467 1.8682 15.467 5.6016 4.0889 3.7333 6.1328 8.5776 6.1328 14.533 0 6.0444-2.0439 10.977-6.1328 14.799-4 3.7333-9.1557 5.5996-15.467 5.5996-6.4 0-11.644-1.8663-15.732-5.5996-4-3.8222-6-8.7544-6-14.799 0-5.9556 2-10.8 6-14.533 4.0889-3.7333 9.3324-5.6016 15.732-5.6016zm221.34 0c4 0 7.6008 0.93411 10.801 2.8008 3.2 1.7778 5.7329 4.3546 7.5996 7.7324s2.8008 7.2899 2.8008 11.734-0.93411 8.3546-2.8008 11.732c-1.8667 3.3778-4.3996 6.0005-7.5996 7.8672-3.2 1.7778-6.8008 2.666-10.801 2.666s-7.5988-0.88824-10.799-2.666c-3.2-1.8667-5.7349-4.4894-7.6016-7.8672-1.8667-3.3778-2.7988-7.288-2.7988-11.732s0.93216-8.3566 2.7988-11.734 4.4016-5.9546 7.6016-7.7324c3.2-1.8667 6.7988-2.8008 10.799-2.8008zm-462.39 27.334h17.199v8.2676c-1.3333 3.5556-3.6447 6.3101-6.9336 8.2656-3.2 1.8667-6.8886 2.8008-11.066 2.8008-4.2667 0-7.6-0.89019-10-2.668-2.4-1.7778-3.5996-4.177-3.5996-7.1992 0-6.3111 4.8004-9.4668 14.4-9.4668zm699.34 16.666c-1.9556 0-3.6442 0.71254-5.0664 2.1348-1.3333 1.3333-2 3.022-2 5.0664s0.66666 3.777 2 5.1992c1.4222 1.4222 3.1108 2.1328 5.0664 2.1328 1.9556 0 3.6442-0.71059 5.0664-2.1328s2.1328-3.1548 2.1328-5.1992-0.71059-3.7331-2.1328-5.0664c-1.4222-1.4222-3.1108-2.1348-5.0664-2.1348z" fill="#fff"/>
</svg>
